<svg width="121" height="44" viewBox="0 0 121 44" fill="none" xmlns="http://www.w3.org/2000/svg">
<g clip-path="url(#clip0_34_22)">
<path d="M0.753174 0.840375V22.4033H22.2868V0.840375H0.753174ZM15.6612 15.7684H7.37873V7.4727H15.6612V15.7684Z" fill="white"/>
<path d="M37.1952 7.47482H28.9127V15.768H37.1952V7.47482Z" fill="white"/>
<path d="M43.8216 0.840375H55.8194C60.223 0.840375 62.2347 3.78089 62.2347 6.46785C62.2347 8.40352 61.4912 9.65383 59.4978 10.8152C62.0125 11.7461 63.3796 13.4248 63.3796 16.0156C63.3796 19.1131 61.133 22.4007 55.8351 22.4007H43.8148L43.8216 0.840375ZM50.3728 17.5331H54.7144C56.2608 17.5331 56.9563 16.427 56.9563 15.4485C56.9563 15.9016 57.1551 13.6617 54.9344 13.6617H50.3711L50.3728 17.5331ZM50.3885 9.32966H53.8774C55.4723 9.32966 56.1079 8.58603 56.1079 7.49524C56.1079 7.24254 56.0297 5.8361 54.3354 5.8361H50.3885V9.32966Z" fill="white"/>
<path d="M70.201 0.840375H77.1376L85.0398 22.3756H77.9185L76.875 19.1505H70.2295L69.3463 22.3578H62.2805L70.201 0.840375ZM73.3874 7.23148L71.5563 14.4211H75.473L73.3874 7.23148Z" fill="white"/>
<path d="M96.103 7.2451H102.718C102.718 3.58647 99.9708 0.195435 93.4515 0.195435C86.3008 0.195435 84.0865 4.14718 84.0865 7.03962C84.0865 11.7035 89.7863 12.9432 89.9626 12.9985C90.8123 13.2669 94.3521 14.2161 95.235 14.5326C95.9997 14.8061 96.7326 15.42 96.7326 16.2398C96.7326 17.4982 95.235 18.1031 93.988 18.1031C93.1876 18.1031 90.4975 17.8377 90.4975 14.9822H83.6633C83.6633 18.7744 86.2685 23.0184 93.5772 23.0184C101.644 23.0184 103.331 18.1997 103.331 15.6387C103.331 13.5473 102.149 11.2283 99.4185 10.1239C97.7765 9.45984 95.054 8.87829 93.6877 8.47839C92.9986 8.27589 90.7027 7.81048 90.7027 6.40787C90.7027 4.61046 93.6613 4.84274 93.2297 4.84274C94.5671 4.84274 96.103 5.59616 96.103 7.2451Z" fill="white"/>
<path d="M104.454 0.835695H120.965V6.52613H111.052V10.32H119.892V15.7578H111.021V22.3969H104.422L104.454 0.835695Z" fill="white"/>
<path d="M9.34576 39.4614L9.33896 39.435L7.27461 31.6664H5.97924L3.88302 39.4614H3.80018L3.79423 39.4337L1.96567 31.6664H0.769287L3.1493 40.9644H4.39157L6.55406 33.0907H6.63478L6.64158 33.1171L8.77051 40.9644H10.0136L12.4977 31.6664H11.3268L9.4269 39.4614H9.34576Z" fill="white"/>
<path d="M17.9906 35.4033C17.7512 35.0219 17.4279 34.7003 17.0453 34.4631C16.6545 34.2189 16.1566 34.0938 15.5639 34.0938C15.1296 34.0904 14.6995 34.1793 14.3021 34.3546C13.9231 34.5248 13.5836 34.7721 13.3054 35.0808C13.0179 35.4039 12.7953 35.7795 12.6498 36.1869C12.4899 36.6374 12.4107 37.1127 12.4157 37.5908C12.4287 38.0721 12.5051 38.5496 12.643 39.0109C12.7651 39.4204 12.9705 39.8001 13.2463 40.1263C13.5172 40.4403 13.8558 40.6885 14.2366 40.8521C14.6279 41.0223 15.097 41.1129 15.6302 41.1129C16.3872 41.1129 17.0245 40.9193 17.5224 40.542C18.0102 40.171 18.3331 39.6145 18.483 38.8871H17.4549C17.3534 39.3235 17.1516 39.6562 16.8512 39.8753C16.5508 40.0944 16.1476 40.2093 15.6701 40.2093C15.2984 40.2093 14.9721 40.1476 14.698 40.0234C14.4372 39.9082 14.2051 39.7366 14.0183 39.5209C13.8399 39.3108 13.708 39.0652 13.6312 38.8003C13.5504 38.522 13.5143 38.2327 13.5242 37.9431V37.9077H18.5969C18.6084 37.4862 18.5712 37.0648 18.486 36.6519C18.3971 36.2093 18.2293 35.7863 17.9906 35.4033ZM13.5212 36.9944L13.5237 36.9561C13.5405 36.6975 13.599 36.4433 13.6971 36.2035C13.7919 35.9737 13.9278 35.7633 14.0981 35.5824C14.2701 35.4024 14.4768 35.2593 14.7057 35.1616C14.9568 35.056 15.227 35.0034 15.4993 35.0072C15.7674 35.0045 16.0332 35.0575 16.2798 35.1629C16.5089 35.2609 16.7174 35.4014 16.8945 35.5769C17.0714 35.7549 17.2118 35.9659 17.3079 36.198C17.4099 36.4392 17.4706 36.6959 17.4876 36.9574L17.4906 36.9956L13.5212 36.9944Z" fill="white"/>
<path d="M26.4227 40.2093C26.0679 40.2093 25.7578 40.1378 25.5003 39.9966C25.2493 39.8591 25.0344 39.664 24.8732 39.4273C24.7092 39.1808 24.5898 38.9071 24.5206 38.619C24.4447 38.3163 24.4062 38.0054 24.4059 37.6933C24.406 37.3575 24.4419 37.0226 24.5129 36.6944C24.5771 36.3888 24.6968 36.0975 24.866 35.8351C25.0337 35.5834 25.2606 35.3769 25.5266 35.2335C25.8028 35.0829 26.1478 35.0068 26.5527 35.0068C27.0315 35.0068 27.4185 35.1285 27.7036 35.3697C27.981 35.6041 28.1679 35.9372 28.2601 36.3588H29.3435C29.3084 36.012 29.2041 35.6758 29.0368 35.3701C28.8813 35.0896 28.6685 34.845 28.4122 34.6524C28.148 34.4582 27.8497 34.3153 27.5328 34.2312C27.1833 34.1382 26.823 34.0921 26.4613 34.0943C25.9362 34.0943 25.4693 34.1883 25.0746 34.3738C24.6907 34.5502 24.3521 34.8121 24.0847 35.1395C23.815 35.4774 23.6143 35.8651 23.4942 36.2805C23.3627 36.7398 23.2977 37.2156 23.3013 37.6933C23.2961 38.1633 23.3641 38.6312 23.5026 39.0802C23.6246 39.4782 23.8271 39.8467 24.0974 40.1629C24.3662 40.4697 24.7027 40.7096 25.0801 40.8636C25.4706 41.0274 25.9273 41.109 26.4358 41.109C27.2855 41.109 27.9691 40.8836 28.4628 40.4369C28.9484 39.9978 29.2573 39.3652 29.3822 38.5578H28.3145C28.2397 39.0742 28.0456 39.4801 27.7376 39.7677C27.4202 40.0617 26.9788 40.2101 26.4205 40.2101" fill="white"/>
<path d="M32.7924 34.4563C32.3492 34.761 31.9937 35.1769 31.7613 35.6624L31.7516 35.6815H31.7154V34.2521H30.7362V40.9644H31.7792V37.9818C31.7738 37.5878 31.8179 37.1948 31.9105 36.8119C31.988 36.4935 32.1337 36.1958 32.3374 35.9393C32.5439 35.6907 32.8122 35.5011 33.1153 35.3897C33.4242 35.2693 33.7998 35.2072 34.2331 35.2029V34.0938C34.2072 34.0938 34.1821 34.0938 34.1571 34.0938C33.6137 34.0938 33.1553 34.2168 32.7941 34.4576" fill="white"/>
<path d="M39.9236 35.4033C39.6841 35.0219 39.3608 34.7003 38.9783 34.4631C38.5878 34.2189 38.0899 34.0938 37.4968 34.0938C37.0621 34.0902 36.6316 34.1791 36.2337 34.3546C35.8546 34.5246 35.515 34.772 35.2366 35.0808C34.9493 35.4039 34.7269 35.7795 34.5815 36.1869C34.422 36.6365 34.3427 37.1107 34.3474 37.5878C34.3603 38.0691 34.4368 38.5466 34.5747 39.0079C34.6966 39.4175 34.9021 39.7973 35.178 40.1233C35.4488 40.4374 35.7874 40.6856 36.1683 40.8491C36.5592 41.0193 37.0286 41.1099 37.5614 41.1099C38.3189 41.1099 38.9562 40.9163 39.4541 40.539C39.9418 40.168 40.2647 39.6116 40.4147 38.8841H39.3861C39.2863 39.3231 39.0832 39.6558 38.7828 39.8749C38.4825 40.094 38.0793 40.2088 37.6013 40.2088C37.23 40.2088 36.9037 40.1472 36.6297 40.0229C36.3687 39.908 36.1366 39.7363 35.9499 39.5205C35.7716 39.3103 35.6397 39.0647 35.5629 38.7999C35.4821 38.5216 35.446 38.2322 35.4558 37.9426V37.9073H40.5281C40.54 37.486 40.5029 37.0647 40.4177 36.6519C40.3293 36.2095 40.1619 35.7866 39.9236 35.4037V35.4033ZM35.452 36.9944L35.455 36.9561C35.4717 36.6975 35.5303 36.4433 35.6283 36.2035C35.7229 35.9737 35.8587 35.7632 36.029 35.5824C36.2014 35.4028 36.4083 35.2601 36.6374 35.1629C36.8884 35.0572 37.1586 35.0046 37.431 35.0085C37.6997 35.0051 37.9662 35.0577 38.2135 35.1629C38.4427 35.2609 38.6512 35.4014 38.8283 35.5769C39.0052 35.7549 39.1456 35.9659 39.2417 36.198C39.3435 36.4393 39.4042 36.696 39.4214 36.9574L39.424 36.9956L35.452 36.9944Z" fill="white"/>
<path d="M47.2884 39.9978C47.2578 39.8753 47.2429 39.6835 47.2429 39.4129V35.9244C47.2429 35.5415 47.1694 35.2233 47.0241 34.9838C46.8848 34.7501 46.686 34.5576 46.448 34.4261C46.1968 34.2903 45.9235 34.2006 45.6408 34.1611C44.9738 34.0645 44.2813 34.0717 43.6682 34.2125C43.3496 34.2834 43.047 34.4133 42.776 34.5954C42.5181 34.7724 42.3062 35.0085 42.1579 35.2842C42.0083 35.5607 41.9221 35.9002 41.903 36.295H42.9451C42.9783 35.804 43.1575 35.4624 43.4719 35.282C43.7863 35.1017 44.1942 35.0089 44.6696 35.0089C44.8489 35.0092 45.0279 35.0224 45.2053 35.0485C45.3795 35.0722 45.5479 35.127 45.7028 35.2101C45.854 35.2933 45.9805 35.4149 46.0695 35.5628C46.1646 35.7172 46.2126 35.9227 46.2126 36.1733C46.2126 36.3924 46.1472 36.5638 46.0172 36.6787C45.8686 36.8028 45.693 36.8903 45.5044 36.934C45.2641 36.9971 45.0194 37.0419 44.7724 37.068C44.5009 37.0965 44.209 37.1428 43.904 37.2037C43.6181 37.256 43.3356 37.3219 43.0611 37.4006C42.8025 37.4713 42.5581 37.5865 42.3389 37.741C42.1268 37.8936 41.9531 38.0936 41.8316 38.3251C41.7041 38.5637 41.6387 38.8781 41.6387 39.2529C41.6387 39.5882 41.6973 39.8757 41.8125 40.1114C41.9218 40.339 42.0846 40.5367 42.287 40.6874C42.4966 40.8412 42.735 40.9511 42.988 41.0103C43.2687 41.0761 43.5562 41.1084 43.8445 41.1065C44.2903 41.1103 44.7328 41.0293 45.1484 40.8678C45.5588 40.6994 45.9206 40.4307 46.2008 40.0863L46.2636 40.0089V40.1085C46.2636 40.4637 46.3461 40.7223 46.5079 40.8742C46.6698 41.0261 46.8945 41.1065 47.1715 41.1065C47.494 41.1065 47.751 41.055 47.9363 40.9516V40.1569C47.8378 40.1895 47.7349 40.2072 47.6312 40.2093C47.4375 40.2093 47.3228 40.1395 47.2875 39.9966L47.2884 39.9978ZM46.2008 38.6399C46.1965 38.8191 46.1558 38.9956 46.0809 39.1585C45.992 39.3527 45.864 39.5265 45.7049 39.669C45.513 39.8379 45.2909 39.969 45.0503 40.0553C44.7843 40.1557 44.4631 40.208 44.0931 40.208C43.9254 40.2087 43.7581 40.1908 43.5943 40.1548C43.4406 40.1245 43.2942 40.0648 43.1631 39.9791C43.0408 39.8967 42.9391 39.7872 42.8657 39.6592C42.7844 39.5111 42.744 39.344 42.7488 39.1751C42.7488 38.8896 42.8151 38.6586 42.9464 38.4914C43.0797 38.3227 43.2539 38.1909 43.4524 38.1085C43.6731 38.0145 43.905 37.9494 44.1423 37.915C44.382 37.8771 44.636 37.8427 44.8969 37.8099C45.1463 37.7793 45.3859 37.7393 45.6081 37.6925C45.8007 37.6572 45.9835 37.581 46.1442 37.4691L46.2012 37.4266L46.2008 38.6399Z" fill="white"/>
<path d="M58.216 35.4033C57.9765 35.0217 57.653 34.7001 57.2703 34.4631C56.8794 34.2189 56.3806 34.0938 55.7884 34.0938C55.3537 34.09 54.9232 34.1786 54.5253 34.3538C54.1459 34.5236 53.8061 34.7709 53.5277 35.08C53.2404 35.403 53.0181 35.7786 52.873 36.1861C52.7138 36.6368 52.6349 37.1119 52.6398 37.59C52.6518 38.0713 52.7281 38.5489 52.8667 39.01C52.9884 39.4196 53.1937 39.7994 53.4695 40.1255C53.7408 40.4388 54.0792 40.6869 54.4594 40.8512C54.8507 41.0214 55.3202 41.112 55.8538 41.112C56.6109 41.112 57.2469 40.9185 57.7448 40.5411C58.2321 40.1701 58.5563 39.6137 58.7062 38.8862H57.6777C57.5774 39.3235 57.3743 39.6562 57.074 39.8753C56.7736 40.0944 56.3708 40.2093 55.8929 40.2093C55.522 40.2093 55.1953 40.1476 54.9208 40.0234C54.6599 39.9083 54.4278 39.7367 54.2411 39.5209C54.0627 39.3108 53.9308 39.0652 53.854 38.8003C53.7735 38.522 53.7378 38.2326 53.7482 37.9431V37.9077H58.8188C58.8308 37.4863 58.7937 37.0648 58.7084 36.6519C58.6201 36.2097 58.4534 35.7869 58.216 35.4037V35.4033ZM53.7682 36.9948L53.7708 36.9565C53.7864 36.6978 53.845 36.4434 53.9441 36.2039C54.0375 35.9737 54.1731 35.7631 54.3439 35.5828C54.5165 35.4032 54.7236 35.2604 54.9527 35.1629C55.2038 35.0572 55.474 35.0046 55.7463 35.0085C56.0145 35.0055 56.2803 35.0581 56.5272 35.1629C56.7561 35.2607 56.9643 35.4012 57.1407 35.5769C57.3174 35.7553 57.458 35.9662 57.5549 36.198C57.657 36.4392 57.718 36.6959 57.7355 36.9574L57.738 36.9956L53.7682 36.9948Z" fill="white"/>
<path d="M66.6603 40.2093C66.3064 40.2093 65.9967 40.1378 65.7392 39.9966C65.4879 39.8591 65.2726 39.6641 65.1109 39.4273C64.9466 39.1808 64.827 38.9072 64.7574 38.619C64.683 38.3154 64.6457 38.0039 64.6461 37.6912C64.6453 37.3561 64.6808 37.0219 64.7519 36.6944C64.8156 36.3892 64.9347 36.0982 65.1032 35.8359C65.2715 35.5843 65.4986 35.3775 65.7647 35.2335C66.0396 35.0829 66.3854 35.0068 66.7916 35.0068C67.2687 35.0068 67.6566 35.1285 67.9412 35.3697C68.2208 35.6041 68.4086 35.9372 68.4982 36.3588H69.5824C69.5473 36.0116 69.4433 35.6749 69.2765 35.3684C69.1201 35.0885 68.9067 34.8446 68.6503 34.6524C68.3859 34.4588 68.0878 34.3159 67.7713 34.2312C67.4215 34.1382 67.0609 34.0922 66.699 34.0943C66.1743 34.0943 65.7074 34.1883 65.3131 34.3738C64.929 34.5497 64.5905 34.8117 64.3236 35.1395C64.0533 35.477 63.8525 35.8648 63.7327 36.2805C63.6007 36.7403 63.5352 37.2166 63.5381 37.695C63.5334 38.1649 63.6012 38.6327 63.739 39.0819C63.8617 39.4796 64.0641 39.848 64.3338 40.1646C64.604 40.4705 64.9412 40.7097 65.3191 40.8636C65.7112 41.0274 66.1688 41.109 66.6743 41.109C67.5279 41.109 68.2093 40.8836 68.703 40.4369C69.1865 39.9987 69.497 39.3661 69.6211 38.5578H68.5547C68.4808 39.0742 68.2875 39.4801 67.9773 39.7677C67.6625 40.0617 67.2198 40.2101 66.6603 40.2101" fill="white"/>
<path d="M76.0529 34.78C75.862 34.5563 75.6191 34.3831 75.3455 34.2755C75.0537 34.1555 74.6841 34.0938 74.2456 34.0938C74.0385 34.0952 73.832 34.1171 73.6291 34.1594C73.4194 34.2021 73.2155 34.2695 73.0216 34.3602C72.8312 34.4491 72.6554 34.5666 72.5003 34.7086C72.3482 34.8481 72.1902 35.0225 72.1052 35.2272L72.0967 35.2493H72.0466V31.6664H71.004V40.9644H72.0466V37.1692C72.0441 36.8783 72.0871 36.5888 72.174 36.3111C72.2541 36.0585 72.3842 35.8245 72.5564 35.6232C72.731 35.424 72.9491 35.2677 73.1937 35.1663C73.4486 35.0604 73.7494 35.0072 74.0927 35.0072C74.5277 35.0072 74.8769 35.1348 75.1276 35.3854C75.3783 35.636 75.504 35.981 75.504 36.4064V40.9644H76.5479V36.54C76.5506 36.2047 76.5135 35.8702 76.4374 35.5437C76.3717 35.2623 76.2416 35.0002 76.0572 34.7779" fill="white"/>
<path d="M83.5354 35.4033C83.2962 35.0216 82.9726 34.6999 82.5897 34.4631C82.1997 34.2189 81.7009 34.0938 81.1078 34.0938C80.673 34.0899 80.2423 34.1785 79.8443 34.3538C79.4652 34.524 79.1257 34.7713 78.8472 35.08C78.5608 35.403 78.3385 35.7777 78.192 36.1839C78.0326 36.6346 77.9538 37.1098 77.9592 37.5878C77.9716 38.0691 78.0477 38.5467 78.1857 39.0079C78.3081 39.4174 78.5138 39.7972 78.7898 40.1233C79.0607 40.4369 79.399 40.6851 79.7793 40.8491C80.1702 41.0193 80.6405 41.1099 81.1728 41.1099C81.9307 41.1099 82.5655 40.9163 83.0647 40.539C83.552 40.168 83.8753 39.6128 84.0257 38.8841H82.998C82.8981 39.3235 82.6955 39.6562 82.3934 39.8753C82.0913 40.0944 81.6898 40.2093 81.2127 40.2093C80.8419 40.2093 80.5147 40.1476 80.2407 40.0234C79.9797 39.9084 79.7475 39.7368 79.5609 39.5209C79.3826 39.3108 79.2509 39.0652 79.1743 38.8003C79.0931 38.5221 79.0569 38.2327 79.0672 37.9431V37.9077H84.14C84.1518 37.4862 84.1142 37.0647 84.0278 36.6519C83.9396 36.2097 83.7728 35.7869 83.5354 35.4037V35.4033ZM79.0634 36.9948L79.0668 36.9565C79.0831 36.6978 79.1417 36.4436 79.2402 36.2039C79.3335 35.9737 79.4691 35.763 79.6399 35.5828C79.8127 35.4031 80.0197 35.26 80.2487 35.1621C80.4999 35.056 80.7703 35.0034 81.0428 35.0076C81.3106 35.0044 81.576 35.057 81.8224 35.1621C82.0515 35.2596 82.2599 35.4001 82.4363 35.576C82.6134 35.7544 82.7545 35.9653 82.8518 36.1971C82.9525 36.4387 83.013 36.6953 83.0307 36.9565L83.0337 36.9948H79.0634Z" fill="white"/>
<path d="M94.3007 34.5461C94.0953 34.3858 93.8589 34.2699 93.6065 34.2057C93.3077 34.1291 93.0002 34.0919 92.6918 34.0951C92.2703 34.0913 91.8547 34.1937 91.4831 34.3929C91.1196 34.5895 90.8142 34.8786 90.5977 35.231L90.5552 35.2969L90.5302 35.2246C90.3955 34.8158 90.158 34.5227 89.8279 34.3525C89.4791 34.1777 89.0937 34.089 88.7037 34.0938C87.769 34.0938 87.0018 34.4767 86.506 35.2327L86.4949 35.2493H86.4524V34.2521H85.4753V40.9644H86.5179V36.7744C86.5248 36.6029 86.5583 36.4336 86.6173 36.2724C86.6922 36.0612 86.8027 35.8643 86.944 35.6904C87.1024 35.4936 87.2978 35.3298 87.5192 35.2084C87.7542 35.0744 88.0397 35.0072 88.3689 35.0072C88.626 35.0072 88.8405 35.0455 89.0062 35.1221C89.167 35.193 89.3056 35.3062 89.4073 35.4497C89.5099 35.5972 89.581 35.7643 89.6163 35.9406C89.6575 36.1417 89.6773 36.3466 89.6754 36.5519V40.9644H90.7192V36.7744C90.7192 36.2431 90.8802 35.81 91.2006 35.4905C91.5209 35.171 91.9653 35.0072 92.5236 35.0072C92.7976 35.0072 93.0257 35.0498 93.1995 35.1276C93.3645 35.2003 93.5075 35.3152 93.6142 35.4607C93.7155 35.609 93.784 35.7773 93.8151 35.9542C93.8519 36.1506 93.8699 36.35 93.8691 36.5498V40.9644H94.9117V36.0295C94.9117 35.6862 94.8577 35.3888 94.7511 35.1438C94.6517 34.9118 94.4976 34.7074 94.302 34.5482" fill="white"/>
<path d="M97.7777 32.9601H96.7351V31.6664H97.7777V32.9601ZM97.7777 34.2521H96.7351V40.9644H97.7777V34.2521Z" fill="white"/>
<path d="M104.012 40.6679C104.278 40.5078 104.503 40.287 104.668 40.0234C104.833 39.76 104.918 39.4218 104.918 39.0181C104.918 38.705 104.855 38.4374 104.733 38.2243C104.611 38.0129 104.444 37.8309 104.244 37.6912C104.03 37.5424 103.795 37.4264 103.547 37.347C103.279 37.2589 103.006 37.185 102.731 37.1254C102.469 37.065 102.207 37.0064 101.944 36.9497C101.701 36.898 101.463 36.8269 101.231 36.737C101.036 36.6635 100.857 36.5544 100.703 36.4154C100.634 36.3508 100.579 36.2722 100.542 36.1849C100.506 36.0975 100.488 36.0034 100.49 35.9087C100.484 35.7476 100.533 35.5891 100.629 35.4599C100.724 35.3427 100.845 35.2497 100.982 35.1884C101.133 35.1188 101.293 35.0712 101.457 35.0472C101.809 34.9873 102.169 34.9945 102.519 35.0685C102.695 35.1056 102.864 35.1705 103.02 35.2608C103.172 35.3501 103.302 35.473 103.399 35.6202C103.498 35.7805 103.558 35.962 103.573 36.1499H104.615C104.586 35.7606 104.5 35.4322 104.36 35.1714C104.223 34.9113 104.022 34.6905 103.776 34.5299C103.518 34.3648 103.231 34.2503 102.93 34.1925C102.583 34.1251 102.229 34.0922 101.875 34.0943C101.576 34.0954 101.277 34.1325 100.987 34.2049C100.703 34.2733 100.431 34.3873 100.184 34.5422C99.95 34.6923 99.7522 34.8922 99.6046 35.1276C99.4567 35.3654 99.3815 35.6551 99.3815 35.9882C99.3815 36.4137 99.4886 36.7506 99.7006 36.9867C99.9224 37.2345 100.199 37.4272 100.508 37.5495C100.85 37.6894 101.206 37.7943 101.57 37.8626C101.95 37.9354 102.31 38.0196 102.64 38.1124C102.935 38.1878 103.215 38.3111 103.469 38.4774C103.693 38.6331 103.811 38.8641 103.811 39.1619C103.811 39.3797 103.755 39.5609 103.645 39.7026C103.537 39.8432 103.395 39.9534 103.232 40.0221C103.059 40.0953 102.878 40.1448 102.692 40.1693C102.286 40.2297 101.872 40.2206 101.468 40.1425C101.261 40.1028 101.062 40.0283 100.879 39.9221C100.706 39.8195 100.56 39.6761 100.454 39.5044C100.347 39.3196 100.287 39.111 100.28 38.8973H99.2383C99.2579 39.2946 99.3454 39.6354 99.4932 39.914C99.6395 40.1932 99.8517 40.4323 100.111 40.6104C100.382 40.7926 100.685 40.9224 101.004 40.9933C101.648 41.1435 102.377 41.1503 103.092 41.0129C103.417 40.9549 103.728 40.8387 104.012 40.67" fill="white"/>
<path d="M107.742 32.2182H106.7V34.2521H105.588V35.1629H106.7V39.518C106.7 39.8277 106.73 40.0808 106.79 40.268C106.838 40.4342 106.932 40.5831 107.062 40.6968C107.201 40.8065 107.367 40.8786 107.542 40.9061C107.784 40.949 108.03 40.9686 108.275 40.9648H109.092V40.0523H108.617C108.473 40.0535 108.33 40.0472 108.187 40.0331C108.09 40.0253 107.996 39.9934 107.915 39.9404C107.846 39.8917 107.797 39.8198 107.777 39.7379C107.751 39.6316 107.739 39.5223 107.743 39.4129V35.1629H109.133V34.2508H107.743L107.742 32.2182Z" fill="white"/>
<path d="M50.5172 32.2182H49.4721V34.2521H48.3598V35.1629H49.4721V39.518C49.4721 39.8277 49.5027 40.0808 49.563 40.268C49.6095 40.4344 49.7038 40.5835 49.8341 40.6968C49.9743 40.807 50.1405 40.8791 50.3167 40.9061C50.5587 40.949 50.8043 40.9687 51.05 40.9648H51.867V40.0523H51.3907C51.2466 40.0536 51.1025 40.0472 50.9591 40.0331C50.8619 40.0253 50.7682 39.9934 50.6863 39.9404C50.6179 39.8914 50.5693 39.8196 50.5491 39.7379C50.5234 39.6316 50.5121 39.5222 50.5155 39.4129V35.1629H51.9057V34.2508H50.5172V32.2182Z" fill="white"/>
<path d="M111.719 35.7436L111.709 35.7623H111.672V34.2521H110.695V40.9644H111.738V38.0626C111.733 37.6687 111.777 37.2758 111.87 36.8931C111.948 36.575 112.093 36.2774 112.295 36.0201C112.502 35.7725 112.77 35.5831 113.072 35.4705C113.381 35.3501 113.757 35.2893 114.19 35.2846V34.1742C113.613 34.1632 113.128 34.2857 112.752 34.5371C112.309 34.8424 111.954 35.2583 111.721 35.7436" fill="white"/>
<path d="M117.635 42.7163C117.781 42.446 117.909 42.1665 118.018 41.8795L120.949 34.2521H119.848L117.947 39.8034H117.871L117.862 39.7779L115.89 34.2521H114.712L117.383 40.9623L117.378 40.9746L116.919 42.1156C116.831 42.3004 116.702 42.4626 116.542 42.5899C116.396 42.7005 116.202 42.7554 115.969 42.7554C115.851 42.7552 115.734 42.7367 115.622 42.7005C115.53 42.672 115.44 42.641 115.349 42.6112V43.5599C115.462 43.6001 115.58 43.6286 115.699 43.645C115.827 43.6615 115.957 43.6697 116.087 43.6697C116.305 43.6741 116.522 43.6419 116.729 43.5744C116.913 43.5072 117.081 43.4024 117.222 43.2668C117.387 43.1057 117.526 42.9208 117.635 42.7184" fill="white"/>
</g>
<defs>
<clipPath id="clip0_34_22">
<rect width="120.212" height="43.4721" fill="white" transform="translate(0.753174 0.195435)"/>
</clipPath>
</defs>
</svg>
