<svg width="260" height="247" viewBox="0 0 260 247" fill="none" xmlns="http://www.w3.org/2000/svg">
<path fill-rule="evenodd" clip-rule="evenodd" d="M39 26C35.5522 26 32.2456 27.3696 29.8076 29.8076C27.3696 32.2456 26 35.5522 26 39V117C26 144.582 36.9571 171.035 56.4609 190.539C75.9647 210.043 102.417 221 130 221C157.583 221 184.035 210.043 203.539 190.539C223.043 171.035 234 144.582 234 117V39C234 35.5522 232.63 32.2456 230.192 29.8076C227.754 27.3696 224.448 26 221 26H39ZM11.4228 11.4228C18.7368 4.10891 28.6566 0 39 0H221C231.343 0 241.263 4.10892 248.577 11.4228C255.891 18.7367 260 28.6565 260 39V117C260 151.478 246.304 184.544 221.924 208.924C197.544 233.304 164.478 247 130 247C95.5219 247 62.4558 233.304 38.0761 208.924C13.6964 184.544 7.7486e-07 151.478 0 117V39C0 28.6566 4.10891 18.7368 11.4228 11.4228Z" fill="white"/>
<path fill-rule="evenodd" clip-rule="evenodd" d="M68.8076 94.8076C73.8844 89.7308 82.1156 89.7308 87.1924 94.8076L130 137.615L172.808 94.8076C177.884 89.7308 186.116 89.7308 191.192 94.8076C196.269 99.8844 196.269 108.116 191.192 113.192L139.192 165.192C134.116 170.269 125.884 170.269 120.808 165.192L68.8076 113.192C63.7308 108.116 63.7308 99.8844 68.8076 94.8076Z" fill="white"/>
</svg>
