<svg width="236" height="140" viewBox="0 0 236 140" fill="none" xmlns="http://www.w3.org/2000/svg">
<path d="M169.875 89.9915C169.873 89.7426 169.92 89.4953 170.014 89.2649C170.108 89.0344 170.247 88.8256 170.423 88.6496C170.6 88.474 170.809 88.3351 171.04 88.2413C171.27 88.1476 171.518 88.1 171.766 88.1026C172.015 88.1003 172.261 88.1476 172.491 88.2413C172.721 88.3351 172.931 88.4743 173.107 88.6496C173.283 88.8256 173.422 89.0344 173.516 89.2649C173.61 89.4953 173.657 89.7426 173.655 89.9915C173.657 90.2401 173.61 90.4861 173.516 90.7162C173.422 90.9463 173.283 91.1558 173.107 91.3315C172.931 91.5081 172.722 91.6476 172.491 91.7417C172.261 91.8359 172.014 91.8835 171.764 91.8804C171.516 91.8828 171.269 91.8358 171.039 91.7417C170.809 91.6476 170.599 91.5074 170.423 91.3315C170.247 91.1558 170.108 90.9463 170.014 90.7162C169.92 90.4861 169.873 90.2401 169.875 89.9915ZM173.655 122.933C173.657 123.182 173.61 123.429 173.516 123.659C173.422 123.89 173.283 124.099 173.107 124.275C172.93 124.451 172.721 124.591 172.49 124.685C172.26 124.779 172.013 124.826 171.764 124.824C171.516 124.826 171.269 124.777 171.039 124.683C170.809 124.589 170.599 124.45 170.423 124.275C170.247 124.099 170.108 123.89 170.014 123.659C169.92 123.429 169.873 123.182 169.875 122.933C169.873 122.684 169.92 122.438 170.014 122.208C170.108 121.978 170.247 121.768 170.423 121.593C170.599 121.417 170.809 121.278 171.04 121.185C171.27 121.091 171.518 121.045 171.766 121.048C172.265 121.056 172.74 121.256 173.092 121.608C173.444 121.961 173.646 122.437 173.655 122.935V122.933ZM236.001 59.6951C236 51.7274 233.037 44.0462 227.688 38.1399C222.34 32.2336 214.986 28.5247 207.056 27.7344C205.924 23.0932 203.888 18.7211 201.064 14.8677C198.24 11.0143 194.683 7.75617 190.597 5.2787C186.512 2.80169 181.979 1.15366 177.256 0.430489C172.534 -0.292684 167.715 -0.0776506 163.075 1.06337C156.616 2.64703 150.714 5.96972 146.011 10.6719C141.308 15.3741 137.983 21.2758 136.4 27.7344C132.2 28.1558 128.124 29.4022 124.407 31.4008C120.689 33.3995 117.402 36.1116 114.735 39.3822C112.067 42.6527 110.071 46.4167 108.861 50.4597C107.651 54.5026 107.251 58.7436 107.683 62.9416C108.5 70.8591 112.217 78.1955 118.119 83.5377C124.02 88.8798 131.69 91.8519 139.65 91.8804H166.479C166.723 92.578 167.102 93.2199 167.596 93.7693C168.09 94.3187 168.689 94.7639 169.358 95.08C170.025 95.3965 170.75 95.577 171.488 95.6113C172.226 95.6456 172.964 95.5324 173.659 95.2792C174.356 95.0353 174.997 94.6556 175.547 94.1619C176.096 93.6682 176.543 93.0712 176.86 92.4039C177.176 91.7357 177.357 91.0114 177.391 90.2728C177.426 89.5342 177.313 88.7953 177.06 88.1007C176.816 87.4036 176.435 86.7631 175.942 86.2137C175.448 85.6644 174.85 85.2179 174.183 84.9011C173.515 84.5845 172.79 84.4041 172.052 84.3698C171.313 84.3354 170.576 84.4487 169.881 84.7019C169.091 84.9692 168.374 85.415 167.784 86.0047C167.194 86.5945 166.748 87.3107 166.481 88.1007H139.652C132.134 88.087 124.927 85.0997 119.604 79.7911C114.282 74.4826 111.276 67.284 111.244 59.7674C111.241 52.9038 113.729 46.274 118.246 41.1051C122.762 35.9362 129.001 32.5797 135.804 31.6606C136.278 31.573 136.758 31.5218 137.24 31.5083C137.994 31.4343 138.751 31.3579 139.507 31.3579C139.659 30.5278 139.808 29.6974 140.036 28.8673C140.112 28.5653 140.187 28.3372 140.263 28.0352C141.358 23.8918 143.259 20.0031 145.857 16.5944C148.456 13.1858 151.701 10.3224 155.406 8.1677C159.112 6.01302 163.206 4.61084 167.454 4.03832C171.702 3.46581 176.021 3.73454 180.164 4.83138C185.733 6.3142 190.812 9.24063 194.887 13.3148C198.961 17.3889 201.888 22.4676 203.372 28.0352C203.448 28.3372 203.523 28.5653 203.597 28.8673C203.823 29.6974 203.976 30.4535 204.128 31.2856C204.885 31.2959 205.641 31.3437 206.394 31.4321C206.848 31.5081 207.377 31.5084 207.829 31.5864C215.284 32.6089 222.028 36.5512 226.577 42.5447C231.126 48.5381 233.108 56.0929 232.086 63.5471C231.167 70.3488 227.811 76.5862 222.641 81.1018C217.471 85.6174 210.838 88.1034 203.973 88.1007L174.199 117.874C172.845 117.228 171.291 117.142 169.875 117.637C168.459 118.133 167.297 119.168 166.641 120.516C165.996 121.87 165.911 123.423 166.406 124.837C166.902 126.252 167.937 127.415 169.285 128.07C170.639 128.716 172.192 128.799 173.608 128.304C175.023 127.81 176.185 126.775 176.841 125.427C177.214 124.662 177.409 123.823 177.409 122.972C177.409 122.121 177.214 121.281 176.841 120.516L205.483 91.8804C213.724 91.4397 221.482 87.8567 227.162 81.8695C232.841 75.8823 236.009 67.9448 236.013 59.6931L236.001 59.6951ZM143.892 53.2705C143.894 53.5194 143.846 53.7668 143.752 53.9972C143.658 54.2276 143.52 54.4382 143.344 54.6144C143.168 54.7901 142.959 54.927 142.729 55.0207C142.498 55.1145 142.251 55.1622 142.003 55.1594C141.754 55.1625 141.507 55.1165 141.277 55.0227C141.046 54.9289 140.837 54.7903 140.661 54.6144C140.485 54.4382 140.346 54.2276 140.252 53.9972C140.158 53.7668 140.11 53.5194 140.113 53.2705C140.11 53.022 140.158 52.7759 140.252 52.5458C140.346 52.3158 140.485 52.1064 140.661 51.9305C140.837 51.7547 141.046 51.6164 141.277 51.5223C141.507 51.4282 141.754 51.3814 142.003 51.3836C142.501 51.3918 142.977 51.5938 143.329 51.9462C143.682 52.2985 143.884 52.7723 143.892 53.2705ZM199.586 53.2705C199.584 53.0219 199.631 52.776 199.725 52.5458C199.819 52.3157 199.958 52.1061 200.134 51.9305C200.31 51.7547 200.52 51.6164 200.751 51.5223C200.981 51.4282 201.228 51.3814 201.476 51.3836C201.725 51.3816 201.972 51.4282 202.202 51.5223C202.432 51.6164 202.642 51.755 202.818 51.9305C202.994 52.1061 203.133 52.3157 203.227 52.5458C203.321 52.776 203.368 53.0219 203.366 53.2705C203.368 53.5195 203.321 53.7667 203.227 53.9972C203.133 54.2276 202.994 54.4384 202.818 54.6144C202.642 54.7903 202.432 54.9289 202.201 55.0227C201.971 55.1165 201.723 55.1625 201.474 55.1594C201.226 55.1622 200.98 55.1145 200.75 55.0207C200.519 54.927 200.31 54.7901 200.134 54.6144C199.958 54.4384 199.819 54.2276 199.725 53.9972C199.631 53.7667 199.584 53.5195 199.586 53.2705ZM195.883 53.2705C195.874 54.6057 196.359 55.8981 197.244 56.8979C194.564 60.2431 191.249 63.0261 187.491 65.0883C183.733 67.1505 179.604 68.4509 175.343 68.9149C171.081 69.3772 166.77 68.9946 162.656 67.7878C158.543 66.581 154.708 64.5743 151.372 61.8828C149.544 60.3956 147.873 58.7251 146.385 56.8979C146.87 56.3291 147.237 55.67 147.465 54.9582C147.694 54.2464 147.779 53.4957 147.715 52.7509C147.652 52.006 147.442 51.2809 147.096 50.6179C146.751 49.9549 146.276 49.3678 145.702 48.8892C145.134 48.4041 144.475 48.0357 143.763 47.807C143.051 47.5783 142.302 47.494 141.557 47.557C140.812 47.6203 140.087 47.8308 139.424 48.1762C138.761 48.5216 138.173 48.9948 137.694 49.5689C137.209 50.1372 136.841 50.7952 136.612 51.5066C136.384 52.2181 136.298 52.9693 136.361 53.7139C136.425 54.4592 136.635 55.1836 136.981 55.847C137.326 56.5103 137.799 57.0987 138.374 57.5777C139.016 58.1393 139.782 58.5411 140.61 58.7497C141.437 58.9583 142.302 58.967 143.134 58.777C149.068 66.3903 157.783 71.3361 167.363 72.5266C176.943 73.7172 186.603 71.0565 194.22 65.1273C196.575 63.2636 198.706 61.1315 200.569 58.777C201.295 58.91 202.039 58.8984 202.76 58.7419C203.481 58.5853 204.164 58.2887 204.769 57.8667C205.373 57.445 205.888 56.9078 206.284 56.2865C206.679 55.6652 206.948 54.9708 207.075 54.2452C207.212 53.5204 207.202 52.7748 207.047 52.0536C206.893 51.3323 206.596 50.6507 206.174 50.0455C205.751 49.4409 205.212 48.9253 204.588 48.5317C203.964 48.1381 203.267 47.8734 202.539 47.7523C201.813 47.6187 201.068 47.6309 200.347 47.7875C199.626 47.944 198.943 48.242 198.338 48.6645C197.733 49.086 197.219 49.6234 196.823 50.2448C196.427 50.8662 196.158 51.5602 196.031 52.286C195.908 52.598 195.856 52.932 195.879 53.2666" fill="white"/>
<path d="M86.9751 108.194V137.741C86.9735 137.81 86.987 137.879 87.0132 137.944C87.0393 138.008 87.0778 138.067 87.1275 138.116C87.1768 138.165 87.2363 138.205 87.3013 138.231C87.3664 138.257 87.4355 138.268 87.5055 138.266H87.8074C87.8771 138.267 87.9469 138.255 88.0115 138.229C88.0762 138.203 88.1343 138.163 88.1834 138.114C88.2325 138.065 88.2716 138.008 88.2977 137.944C88.3239 137.879 88.3368 137.81 88.3358 137.741V108.194C88.3371 108.124 88.3248 108.056 88.2987 107.991C88.2726 107.926 88.2328 107.867 88.1834 107.817C88.1339 107.768 88.0755 107.73 88.0105 107.704C87.9455 107.678 87.8753 107.665 87.8054 107.667H87.5055C87.4356 107.665 87.3663 107.678 87.3013 107.704C87.2364 107.73 87.177 107.768 87.1275 107.817C87.0782 107.867 87.0399 107.926 87.0142 107.991C86.9884 108.056 86.9752 108.124 86.977 108.194H86.9751ZM18.0572 108.95C18.1276 108.84 18.1508 108.707 18.1226 108.579C18.093 108.452 18.0149 108.341 17.9048 108.27C16.1874 107.277 14.2182 106.805 12.2371 106.911C10.2717 106.968 8.34693 107.482 6.6153 108.413C4.88367 109.344 3.3932 110.666 2.26245 112.275C1.75475 112.996 1.29974 113.755 0.901693 114.543V137.744C0.900435 137.814 0.913665 137.883 0.939791 137.948C0.965916 138.012 1.00474 138.07 1.05408 138.119C1.10337 138.169 1.16192 138.209 1.22699 138.235C1.29205 138.261 1.36216 138.272 1.43212 138.27H1.73397C1.804 138.271 1.87412 138.259 1.93911 138.233C2.0041 138.207 2.06254 138.167 2.11201 138.118C2.16084 138.068 2.19955 138.01 2.22533 137.946C2.25111 137.881 2.26381 137.814 2.26245 137.744V114.543C2.79061 113.636 6.11527 108.27 12.2371 108.27C13.9536 108.21 15.6536 108.626 17.1487 109.472C17.203 109.507 17.2645 109.531 17.3284 109.542C17.3924 109.553 17.4576 109.551 17.5209 109.536C17.648 109.507 17.7582 109.431 17.8286 109.321L18.0572 108.95ZM46.9261 120.891C46.9414 121.32 46.9158 121.75 46.8499 122.174H20.7777C21.0798 114.391 26.0699 108.272 34.3823 108.272C36.0524 108.213 37.7163 108.5 39.2705 109.114C40.8247 109.728 42.2352 110.656 43.4133 111.841C44.5914 113.026 45.5115 114.442 46.1163 116C46.7211 117.557 46.9978 119.224 46.928 120.893L46.9261 120.891ZM47.986 123.159C48.1974 122.422 48.299 121.659 48.2878 120.893C48.3707 119.042 48.0684 117.193 47.3999 115.465C46.7313 113.736 45.711 112.165 44.4039 110.851C43.0967 109.537 41.531 108.508 39.8058 107.831C38.0807 107.153 36.2344 106.842 34.3823 106.915C25.0115 106.915 19.3437 113.941 19.3437 122.856C19.3437 131.857 25.0876 139.102 34.3823 139.102C38.3985 139.093 42.3103 137.826 45.5673 135.477C45.7173 135.327 45.8698 135.173 45.7177 134.945L45.4149 134.492C45.3581 134.409 45.2749 134.35 45.1785 134.322C45.0821 134.295 44.9791 134.301 44.8874 134.342L44.8112 134.416C41.7741 136.599 38.123 137.764 34.3823 137.742C26.0699 137.742 21.0058 131.541 20.7777 123.612H47.5298C47.6818 123.46 47.908 123.387 47.984 123.159H47.986ZM77.9929 131.923C76.7105 133.764 74.9874 135.255 72.9807 136.258C70.974 137.261 68.7473 137.745 66.5051 137.666C59.251 137.666 53.2053 131.167 53.2053 122.932C53.2053 114.545 58.807 108.348 66.9594 108.348C69.0404 108.389 71.0919 108.853 72.9885 109.71C74.8851 110.567 76.5875 111.8 77.9929 113.335V131.923ZM79.3537 137.742V85.2287C79.3537 84.9266 79.2015 84.6973 78.8994 84.6973H78.5966C78.5267 84.6953 78.4575 84.7087 78.3925 84.7345C78.3274 84.7603 78.2681 84.7983 78.2186 84.8478C78.1692 84.8974 78.1304 84.9567 78.1043 85.0216C78.0782 85.0865 78.0659 85.1567 78.0672 85.2267V111.23C75.0346 108.492 71.1184 106.935 67.0336 106.844C58.115 106.844 51.995 113.645 51.995 122.864C51.995 131.933 58.569 139.034 66.5794 139.034C68.7419 139.089 70.8909 138.672 72.8752 137.811C74.8595 136.949 76.6314 135.666 78.0672 134.049V137.752C78.0659 137.822 78.0782 137.892 78.1043 137.957C78.1304 138.022 78.1692 138.082 78.2186 138.131C78.2681 138.181 78.3274 138.219 78.3925 138.244C78.4575 138.27 78.5267 138.282 78.5966 138.28H78.8994C79.0283 138.266 79.1462 138.204 79.2306 138.106C79.3149 138.007 79.3595 137.88 79.3537 137.75V137.742ZM89.5559 89.9987C89.5582 89.7498 89.5113 89.5025 89.4172 89.2721C89.3231 89.0417 89.1837 88.833 89.0079 88.6568C88.832 88.4813 88.6226 88.3423 88.3925 88.2485C88.1623 88.1548 87.9162 88.1073 87.6677 88.1098C87.4191 88.1079 87.1729 88.1564 86.9428 88.2505C86.7127 88.3446 86.5034 88.4832 86.3274 88.6587C86.1518 88.8347 86.0132 89.044 85.9191 89.274C85.825 89.5041 85.7774 89.7502 85.7794 89.9987C85.7768 90.2477 85.824 90.4949 85.9181 90.7254C86.0123 90.9558 86.1513 91.1647 86.3274 91.3407C86.5036 91.5165 86.7134 91.6548 86.9438 91.7489C87.1743 91.843 87.4207 91.8918 87.6696 91.8896C87.9183 91.8921 88.1652 91.845 88.3954 91.7509C88.6256 91.6568 88.8342 91.5167 89.0099 91.3407C89.1859 91.1646 89.325 90.9558 89.4192 90.7254C89.5133 90.4949 89.5603 90.2476 89.5579 89.9987H89.5559ZM116.915 130.648C116.915 125.057 111.472 123.545 105.353 121.807C99.4589 120.145 96.4359 118.406 96.4359 114.853C96.4359 112.053 99.0055 108.356 105.277 108.356C108.074 108.351 110.817 109.113 113.211 110.558C113.589 110.784 113.739 110.633 113.891 110.407L114.118 110.028C114.178 109.936 114.203 109.826 114.189 109.716C114.175 109.606 114.123 109.504 114.042 109.429H113.966C111.369 107.786 108.347 106.946 105.275 107.012C98.0973 107.012 94.9218 111.47 94.9218 114.871C94.9218 119.177 98.2468 121.218 105.049 123.106C110.793 124.692 115.401 126.355 115.401 130.662C115.401 134.662 111.244 137.69 105.729 137.69C102.355 137.75 99.0666 136.628 96.4339 134.517C96.1312 134.289 95.9048 134.289 95.7541 134.517L95.376 135.049C95.3 135.275 95.3756 135.424 95.6017 135.578C98.4894 137.844 102.058 139.069 105.729 139.053C111.931 139.053 116.913 135.426 116.913 130.665L116.915 130.648ZM149.786 122.883C149.844 124.783 149.523 126.674 148.841 128.448C148.159 130.223 147.131 131.845 145.815 133.217C144.499 134.588 142.923 135.684 141.179 136.44C139.434 137.195 137.556 137.594 135.656 137.616C133.754 137.594 131.877 137.195 130.132 136.44C128.388 135.684 126.811 134.589 125.495 133.217C124.179 131.845 123.151 130.225 122.469 128.45C121.787 126.676 121.465 124.783 121.523 122.883C121.48 120.995 121.814 119.116 122.503 117.357C123.193 115.598 124.224 113.993 125.539 112.636C126.854 111.279 128.426 110.198 130.163 109.454C131.899 108.71 133.766 108.318 135.656 108.302C137.545 108.318 139.413 108.71 141.149 109.454C142.886 110.198 144.456 111.279 145.771 112.636C147.086 113.993 148.118 115.598 148.807 117.357C149.496 119.116 149.829 120.995 149.786 122.883ZM151.146 122.883C151.189 120.806 150.82 118.74 150.058 116.806C149.297 114.873 148.159 113.11 146.711 111.62C145.262 110.13 143.532 108.942 141.621 108.126C139.71 107.309 137.656 106.88 135.578 106.864C133.5 106.88 131.446 107.309 129.535 108.126C127.624 108.942 125.894 110.13 124.446 111.62C122.998 113.11 121.859 114.873 121.098 116.806C120.336 118.74 119.966 120.806 120.009 122.883C119.944 124.974 120.299 127.056 121.051 129.007C121.802 130.959 122.937 132.739 124.388 134.246C125.838 135.753 127.575 136.954 129.496 137.78C131.418 138.605 133.487 139.038 135.578 139.053C137.67 139.038 139.737 138.605 141.659 137.78C143.581 136.954 145.318 135.753 146.768 134.246C148.219 132.739 149.354 130.959 150.106 129.007C150.858 127.056 151.211 124.974 151.146 122.883Z" fill="white"/>
<path d="M214.915 22.0592C214.897 22.3741 214.815 22.683 214.675 22.9656C214.535 23.2481 214.339 23.4991 214.099 23.7039C213.858 23.9082 213.579 24.0616 213.278 24.1551C212.977 24.2486 212.66 24.2792 212.346 24.247C212.031 24.2293 211.723 24.1486 211.441 24.0086C211.158 23.8687 210.907 23.6741 210.702 23.4344C210.498 23.1942 210.344 22.9151 210.25 22.614C210.156 22.3128 210.124 21.996 210.156 21.6822C210.192 21.0724 210.465 20.4994 210.917 20.0883C211.369 19.6772 211.964 19.4593 212.575 19.4808C213.215 19.485 213.828 19.7427 214.28 20.1957C214.733 20.6487 214.99 21.2606 214.993 21.901C214.95 21.9398 214.923 21.9937 214.917 22.0514L214.915 22.0592ZM215.597 21.901C215.578 21.0921 215.243 20.3233 214.664 19.7582C214.085 19.193 213.308 18.877 212.499 18.8772C211.69 18.897 210.921 19.232 210.356 19.8109C209.792 20.3898 209.475 21.1665 209.475 21.9752C209.477 22.7761 209.797 23.5439 210.363 24.1102C210.93 24.6766 211.698 24.9949 212.499 24.997C212.891 25.004 213.281 24.9345 213.646 24.79C214.011 24.6454 214.344 24.4289 214.625 24.1551C214.906 23.881 215.13 23.5553 215.284 23.1941C215.437 22.8329 215.518 22.4439 215.521 22.0514C215.597 21.9754 215.597 21.975 215.597 21.899V21.901ZM211.97 21.7486V20.768H212.65C213.026 20.768 213.405 20.8412 213.405 21.2212C213.405 21.7513 213.027 21.7506 212.573 21.7506L211.97 21.7486ZM211.97 22.2018H212.501L213.409 23.6395H214.009L213.026 22.1276C213.254 22.1293 213.475 22.0452 213.643 21.8912C213.812 21.7373 213.916 21.5248 213.935 21.2974V21.2212C213.935 20.5411 213.48 20.2387 212.65 20.2387H211.366V23.7156H211.894V22.2037L211.97 22.2018Z" fill="white"/>
</svg>
