<svg width="12" height="12" viewBox="0 0 12 12" fill="none" xmlns="http://www.w3.org/2000/svg">
<path fill-rule="evenodd" clip-rule="evenodd" d="M2.85175 1.28833C3.78363 0.665673 4.87922 0.333328 5.99998 0.333328C7.50154 0.337664 8.94036 0.936078 10.0021 1.99785C11.0639 3.05961 11.6623 4.49844 11.6667 6C11.6667 7.12076 11.3343 8.21635 10.7116 9.14823C10.089 10.0801 9.20397 10.8064 8.16852 11.2353C7.13308 11.6642 5.9937 11.7764 4.89447 11.5578C3.79525 11.3391 2.78554 10.7994 1.99304 10.0069C1.20055 9.21444 0.660849 8.20473 0.442199 7.10551C0.223549 6.00628 0.335768 4.8669 0.764665 3.83146C1.19356 2.79601 1.91987 1.911 2.85175 1.28833ZM3.4814 9.76423C4.2269 10.2624 5.10337 10.5282 5.99998 10.5282C7.20142 10.5254 8.35284 10.0469 9.20239 9.19731C10.0519 8.34776 10.5305 7.19634 10.5333 5.9949C10.5333 5.09829 10.2674 4.22181 9.76931 3.47631C9.27118 2.73081 8.56317 2.14976 7.73482 1.80664C6.90646 1.46352 5.99495 1.37375 5.11557 1.54867C4.23619 1.72359 3.42843 2.15535 2.79443 2.78934C2.16043 3.42334 1.72868 4.23111 1.55376 5.11049C1.37884 5.98987 1.46861 6.90137 1.81173 7.72973C2.15485 8.55809 2.73589 9.2661 3.4814 9.76423ZM6.06802 5.90988L7.52605 8.01221C7.59548 8.11604 7.62138 8.24296 7.59817 8.36568C7.57496 8.48841 7.5045 8.59711 7.40196 8.66841C7.2994 8.73837 7.17338 8.76505 7.05127 8.74267C6.92915 8.72028 6.8208 8.65064 6.74972 8.54885L5.02706 6.05891C4.9571 5.95635 4.93041 5.83034 4.9528 5.70822C4.97518 5.58611 5.04483 5.47776 5.14662 5.40668L8.06326 3.38538C8.16567 3.31844 8.29019 3.29416 8.41025 3.3177C8.53031 3.34125 8.63643 3.41076 8.70598 3.51143C8.77553 3.61209 8.803 3.73594 8.78255 3.85657C8.7621 3.9772 8.69533 4.08507 8.59649 4.15718L6.06802 5.90988Z" fill="#373737"/>
</svg>
