<svg width="32" height="32" viewBox="0 0 32 32" fill="none" xmlns="http://www.w3.org/2000/svg">
<path d="M24.3611 17.1932C24.3611 16.8532 24.4801 16.5132 24.4801 16.0497C24.5053 15.6645 24.4651 15.2778 24.3611 14.9061L26.7501 12.9704C26.8467 12.8891 26.9116 12.7764 26.9333 12.652C26.9551 12.5277 26.9324 12.3997 26.8691 12.2904L24.5911 8.30673C24.501 8.22395 24.3887 8.16917 24.268 8.14904C24.1472 8.12892 24.0233 8.14433 23.9111 8.1934L21.0597 9.3358C20.4543 8.89016 19.8054 8.50703 19.1228 8.19226L18.6695 5.22746C18.7885 4.88746 18.4428 4.6608 18.2161 4.6608H13.6635C13.4369 4.6608 13.0969 4.88746 13.0969 5.11413L12.6435 8.1934C11.9523 8.48742 11.3029 8.87155 10.7123 9.3358L7.9572 8.19226C7.81821 8.13938 7.66584 8.13288 7.52286 8.17373C7.37987 8.21459 7.25394 8.3006 7.16386 8.41893L4.8768 12.4071C4.76346 12.5205 4.8768 12.8673 5.10346 13.0871L7.49253 14.9005C7.49253 15.2405 7.3792 15.5805 7.3792 16.044C7.35661 16.4288 7.39486 16.8147 7.49253 17.1875L5.10686 19.1289C5.00905 19.2095 4.9437 19.3227 4.92286 19.4477C4.90203 19.5727 4.92713 19.701 4.99353 19.8089L7.27153 23.7926C7.36198 23.8749 7.47423 23.9293 7.59484 23.9494C7.71544 23.9695 7.83929 23.9544 7.95153 23.9059L10.8007 22.7726C11.4075 23.2181 12.058 23.6009 12.7421 23.915L13.1955 26.8832C13.212 27.0178 13.2805 27.1406 13.3864 27.2253C13.4923 27.3101 13.6272 27.35 13.7621 27.3365H18.3295C18.5561 27.3365 18.8961 27.1099 18.8961 26.8832L19.3495 23.915C20.0338 23.6035 20.683 23.2202 21.2863 22.7715L24.1355 23.915C24.2569 23.9676 24.3934 23.9735 24.5189 23.9317C24.6443 23.8898 24.75 23.8032 24.8155 23.6883L27.0935 19.7047C27.2069 19.478 27.2069 19.138 26.9745 19.0247L24.3611 17.1932ZM15.9336 20.0424C15.1435 20.0444 14.3705 19.812 13.7126 19.3745C13.0546 18.937 12.5413 18.3141 12.2375 17.5847C11.9338 16.8553 11.8532 16.0522 12.0061 15.277C12.1591 14.5018 12.5385 13.7894 13.0965 13.23C13.6545 12.6706 14.3659 12.2893 15.1407 12.1344C15.9155 11.9795 16.7188 12.058 17.449 12.3599C18.1792 12.6618 18.8033 13.1735 19.2425 13.8304C19.6817 14.4872 19.9161 15.2595 19.9161 16.0497C19.9032 17.103 19.4797 18.1098 18.7356 18.8555C17.9916 19.6013 16.9858 20.0271 15.9325 20.0424H15.9336Z" fill="#373737"/>
</svg>
