<svg width="75" height="75" viewBox="0 0 75 75" fill="none" xmlns="http://www.w3.org/2000/svg">
<path d="M16.6406 61.3281C14.349 58.9844 12.5651 56.276 11.2891 53.2031C10.013 50.1302 9.375 46.9792 9.375 43.75C9.375 39.9479 10.0391 36.4714 11.3672 33.3203C12.6953 30.1693 14.6875 27.2656 17.3438 24.6094C19.1667 22.7865 21.4323 21.25 24.1406 20C26.849 18.75 30.0391 17.7734 33.7109 17.0703C37.3828 16.3672 41.5365 15.9245 46.1719 15.7422C50.8073 15.5599 55.9635 15.651 61.6406 16.0156C62.0573 21.6406 62.2005 26.7839 62.0703 31.4453C61.9401 36.1068 61.5234 40.2865 60.8203 43.9844C60.1172 47.6823 59.1276 50.9245 57.8516 53.7109C56.5755 56.4974 55 58.8281 53.125 60.7031C50.4688 63.3594 47.6042 65.3646 44.5312 66.7188C41.4583 68.0729 38.1771 68.75 34.6875 68.75C31.0938 68.75 27.7995 68.138 24.8047 66.9141C21.8099 65.6901 19.0885 63.8281 16.6406 61.3281ZM24.6875 61.3281C25.9896 62.2135 27.5 62.8906 29.2188 63.3594C30.9375 63.8281 32.7604 64.0625 34.6875 64.0625C37.4479 64.0625 40.1302 63.4896 42.7344 62.3438C45.3385 61.1979 47.7083 59.5312 49.8438 57.3438C51.25 55.9375 52.4479 54.1016 53.4375 51.8359C54.4271 49.5703 55.2344 46.888 55.8594 43.7891C56.4844 40.6901 56.901 37.1875 57.1094 33.2812C57.3177 29.375 57.3177 25.0781 57.1094 20.3906C52.2135 20.2865 47.8255 20.3516 43.9453 20.5859C40.0651 20.8203 36.6406 21.25 33.6719 21.875C30.7031 22.5 28.151 23.2943 26.0156 24.2578C23.8802 25.2214 22.1354 26.4062 20.7812 27.8125C18.5938 30.0521 16.9271 32.4219 15.7813 34.9219C14.6354 37.4219 14.0625 39.974 14.0625 42.5781C14.0625 45.0781 14.5964 47.6953 15.6641 50.4297C16.7318 53.1641 18.0469 55.3646 19.6094 57.0312C22.3698 51.9271 25.6771 47.3437 29.5312 43.2812C33.3854 39.2188 37.474 36.0156 41.7969 33.6719C37.2656 37.5781 33.5938 41.8099 30.7813 46.3672C27.9688 50.9245 25.9375 55.9115 24.6875 61.3281Z" fill="#373737"/>
</svg>
