<svg width="32" height="32" viewBox="0 0 32 32" fill="none" xmlns="http://www.w3.org/2000/svg">
<path d="M24.6625 6H7.3375C6.0483 6 5 6.99667 5 8.22222V23.7778C5 25.0033 6.0483 26 7.3375 26H24.6625C25.9517 26 27 25.0033 27 23.7778V8.22222C27 6.99667 25.9517 6 24.6625 6ZM24.6625 23.7778H7.3375C7.2748 23.7778 7.2319 23.76 7.2132 23.76C7.2055 23.76 7.2011 23.7622 7.2 23.7689L7.1868 8.27333C7.1945 8.26222 7.244 8.22222 7.3375 8.22222H24.6625C24.7494 8.22333 24.7967 8.25333 24.8 8.23111L24.8132 23.7267C24.8055 23.7378 24.756 23.7778 24.6625 23.7778Z" fill="#373737"/>
<path d="M9 10H16V16.6H9V10ZM17.1667 18.8H9V21H23V18.8H18.3333H17.1667ZM18.3333 14.4H23V16.6H18.3333V14.4ZM18.3333 10H23V12.2H18.3333V10Z" fill="#373737"/>
</svg>
