<svg width="80" height="73" viewBox="0 0 80 73" fill="none" xmlns="http://www.w3.org/2000/svg">
<g clip-path="url(#clip0_14_473)">
<path d="M61.3667 13.3333L53.3333 21.3667V21.9667L61.3667 30H73.3333V36.6667H58.6333L53.3333 31.3667V40H50C48.2319 40 46.5362 39.2976 45.286 38.0474C44.0357 36.7971 43.3333 35.1014 43.3333 33.3333V25H32.8667C32.5667 26.2333 32.0667 27.4 31.4 28.5L50.6 63.3333H66.6667C68.4348 63.3333 70.1305 64.0357 71.3807 65.286C72.631 66.5362 73.3333 68.2319 73.3333 70V73.3333H6.66667V70C6.66667 68.2319 7.36905 66.5362 8.61929 65.286C9.86953 64.0357 11.5652 63.3333 13.3333 63.3333H35.3667L19.7333 35C13.7333 34.9 8.53334 30.8 7.03334 25C5.2 17.8667 9.5 10.6 16.6667 8.76667C23.7667 6.93334 31.0333 11.2 32.8667 18.3333H43.3333V10C43.3333 8.23189 44.0357 6.5362 45.286 5.28596C46.5362 4.03571 48.2319 3.33334 50 3.33334H53.3333V11.9667L58.6333 6.66667H73.3333V13.3333H61.3667ZM20 15C18.2319 15 16.5362 15.7024 15.286 16.9526C14.0357 18.2029 13.3333 19.8986 13.3333 21.6667C13.3333 23.4348 14.0357 25.1305 15.286 26.3807C16.5362 27.631 18.2319 28.3333 20 28.3333C21.7681 28.3333 23.4638 27.631 24.7141 26.3807C25.9643 25.1305 26.6667 23.4348 26.6667 21.6667C26.6667 19.8986 25.9643 18.2029 24.7141 16.9526C23.4638 15.7024 21.7681 15 20 15Z" fill="#373737"/>
</g>
<defs>
<clipPath id="clip0_14_473">
<rect width="80" height="73" fill="white"/>
</clipPath>
</defs>
</svg>
