<svg width="24" height="24" viewBox="0 0 24 24" fill="none" xmlns="http://www.w3.org/2000/svg">
<path d="M8.57925 4.3402C7.22458 5.11323 6.20838 6.36538 5.7307 7.85013C5.25301 9.33489 5.34846 10.9447 5.99825 12.3626C6.64803 13.7805 7.80508 14.9038 9.2416 15.5113C10.6781 16.1189 12.29 16.1666 13.76 15.6452L16.5675 20.5021L18.5693 19.3444L15.7643 14.4833C16.9482 13.4717 17.7112 12.054 17.9034 10.5086C18.0955 8.9633 17.703 7.40195 16.8028 6.13122C15.9027 4.86049 14.56 3.9722 13.0384 3.64082C11.5168 3.30943 9.92631 3.55889 8.57925 4.3402ZM15.1089 7.781C15.4539 8.37787 15.6355 9.05504 15.6357 9.7444C15.6359 10.4338 15.4545 11.111 15.1099 11.708C14.7653 12.3051 14.2696 12.8009 13.6725 13.1455C13.0755 13.4902 12.3983 13.6716 11.7089 13.6715C11.0188 13.6698 10.3411 13.4877 9.74306 13.1433C9.14501 12.7989 8.64741 12.3041 8.2996 11.708C7.9547 11.1111 7.77303 10.434 7.77286 9.74461C7.77269 9.05525 7.95403 8.378 8.29864 7.78096C8.64325 7.18392 9.13899 6.68814 9.736 6.34347C10.333 5.9988 11.0102 5.8174 11.6996 5.8175C12.3903 5.81645 13.0691 5.99737 13.6676 6.34207C14.2661 6.68677 14.7632 7.18307 15.1089 7.781Z" fill="#373737"/>
</svg>
